<?xml version="1.0" encoding="utf-8"?>
<!-- Generator: Adobe Illustrator 23.0.1, SVG Export Plug-In . SVG Version: 6.00 Build 0)  -->
<svg version="1.1" id="Layer_1" xmlns="http://www.w3.org/2000/svg" xmlns:xlink="http://www.w3.org/1999/xlink" x="0px" y="0px"
	 viewBox="0 0 1000 700" style="enable-background:new 0 0 1000 700;" xml:space="preserve">
<style type="text/css">
	.st0{fill:#494368;}
	.st1{fill:#2E2C6C;}
	.st2{fill:#F5AB1B;}
	.st3{fill:#00B2AC;}
	.st4{fill:#EE4171;}
	.st5{fill:#FFFFFF;}
</style>
<path class="st0" d="M258.1,426.3c4,0,7.3,1.4,10.1,4.2c2.8,2.8,4.2,6.2,4.2,10.1v49.6h-50.7c-4,0-7.3-1.4-10.1-4.2
	c-2.8-2.8-4.2-6.2-4.2-10.1v-23.6h53.1v-11.7c0-0.7-0.2-1.2-0.7-1.7s-1-0.7-1.7-0.7h-50.7v-11.9L258.1,426.3L258.1,426.3z
	 M260.5,478.3v-14.1h-41.2v11.7c0,0.7,0.2,1.2,0.7,1.7s1,0.7,1.7,0.7L260.5,478.3L260.5,478.3z M375.2,426.3h12.7l-24,63.9h-9.7
	l-21.5-47.5l-20.3,47.5l-0.2-0.1l0.1,0.1h-9.6l-25.1-63.9h12.6l17.3,42.4l18.4-42.4h13.6l19.5,42.4L375.2,426.3z M442.4,426.3
	c4,0,7.3,1.4,10.1,4.2c2.8,2.8,4.2,6.2,4.2,10.1v23.6h-53.1v11.7c0,0.7,0.2,1.2,0.7,1.7s1,0.7,1.7,0.7h50.7v11.9h-50.7
	c-4,0-7.3-1.4-10.1-4.2c-2.8-2.8-4.2-6.2-4.2-10.1v-35.3c0-4,1.4-7.3,4.2-10.1c2.8-2.8,6.2-4.2,10.1-4.2L442.4,426.3L442.4,426.3z
	 M403.6,452.3h41.2v-11.7c0-0.7-0.2-1.2-0.7-1.7s-1-0.7-1.7-0.7H406c-0.7,0-1.2,0.2-1.7,0.7s-0.7,1-0.7,1.7L403.6,452.3L403.6,452.3
	z M532.7,440.7v2.4h-11.9v-2.4c0-0.7-0.2-1.2-0.7-1.7s-1-0.7-1.7-0.7h-36.4c-0.7,0-1.2,0.2-1.7,0.7s-0.7,1-0.7,1.7v9.3
	c0,0.7,0.2,1.2,0.7,1.7s1,0.7,1.7,0.7h36.4c4,0,7.3,1.4,10.1,4.2c2.8,2.8,4.2,6.2,4.2,10.1v9.3c0,4-1.4,7.3-4.2,10.1
	c-2.8,2.8-6.2,4.2-10.1,4.2h-36.4c-4,0-7.3-1.4-10.1-4.2c-2.8-2.8-4.2-6.2-4.2-10.1v-2.4h11.9v2.4c0,0.7,0.2,1.2,0.7,1.7
	s1,0.7,1.7,0.7h36.4c0.7,0,1.2-0.2,1.7-0.7s0.7-1,0.7-1.7v-9.3c0-0.7-0.2-1.2-0.7-1.7s-1-0.7-1.7-0.7h-36.4c-4,0-7.3-1.4-10.1-4.2
	c-2.8-2.8-4.2-6.2-4.2-10.1v-9.3c0-4,1.4-7.3,4.2-10.1c2.8-2.8,6.2-4.2,10.1-4.2h36.4c4,0,7.3,1.4,10.1,4.2
	C531.2,433.3,532.7,436.7,532.7,440.7z M557.9,426.3h36.4c4,0,7.3,1.4,10.1,4.2c2.8,2.8,4.2,6.2,4.2,10.1v35.3c0,4-1.4,7.3-4.2,10.1
	c-2.8,2.8-6.2,4.2-10.1,4.2h-36.4c-4,0-7.3-1.4-10.1-4.2c-2.8-2.8-4.2-6.2-4.2-10.1v-35.3c0-4,1.4-7.3,4.2-10.1
	C550.5,427.7,554,426.3,557.9,426.3L557.9,426.3z M594.2,438.2h-36.4c-0.7,0-1.2,0.2-1.7,0.7s-0.7,1-0.7,1.7v35.3
	c0,0.7,0.2,1.2,0.7,1.7s1,0.7,1.7,0.7h36.4c0.7,0,1.2-0.2,1.7-0.7s0.7-1,0.7-1.7v-35.3c0-0.7-0.2-1.2-0.7-1.7
	C595.5,438.5,595,438.2,594.2,438.2z M701.8,426.3c4,0,7.3,1.4,10.1,4.2c2.8,2.8,4.2,6.2,4.2,10.1v49.6h-11.8v-49.6
	c0-0.7-0.2-1.2-0.7-1.7s-1.1-0.7-1.8-0.7h-25.2c-0.7,0-1.2,0.2-1.7,0.7s-0.7,1-0.7,1.7v49.6h-11.9v-49.6c0-0.7-0.2-1.2-0.7-1.7
	s-1-0.7-1.7-0.7h-25.3c-0.7,0-1.2,0.2-1.7,0.7s-0.7,1-0.7,1.7v49.6h-11.9v-63.9H701.8z M778.2,426.3c4,0,7.3,1.4,10.1,4.2
	c2.8,2.8,4.2,6.2,4.2,10.1v23.6h-53.1v11.7c0,0.7,0.2,1.2,0.7,1.7s1,0.7,1.7,0.7h50.7v11.9h-50.7c-4,0-7.3-1.4-10.1-4.2
	c-2.8-2.8-4.2-6.2-4.2-10.1v-35.3c0-4,1.4-7.3,4.2-10.1c2.8-2.8,6.2-4.2,10.1-4.2L778.2,426.3L778.2,426.3z M739.5,452.3h41.2v-11.7
	c0-0.7-0.2-1.2-0.7-1.7s-1-0.7-1.7-0.7h-36.4c-0.7,0-1.2,0.2-1.7,0.7s-0.7,1-0.7,1.7L739.5,452.3L739.5,452.3z"/>
<path class="st1" d="M792.5,209.1l-150-137.6l-21.1,23l125,114.6H253.7l125-114.7l-21.1-23l-150,137.7h-0.1v90.7
	c0,41,39.5,74.4,88,74.4H388c48.5,0,88-33.4,88-74.4v-59.6h48v59.6c0,41,39.5,74.4,88,74.4h92.5c48.5,0,88-33.4,88-74.4V209.1z"/>
<g>
	<g>
		<g>
			<path class="st1" d="M637.1,558.1c-1.1-3.4-2.8-6.4-5-8.7c-2.2-2.4-4.9-4.2-8.1-5.4c-3.2-1.2-6.9-1.9-11.1-1.9
				c-2.3,0-4.5,0.2-6.8,0.7c-2.3,0.5-4.4,1.2-6.5,2.2c-2,1-3.9,2.3-5.7,3.9c-1.8,1.6-3.2,3.5-4.5,5.8c-1.5-3.8-3.7-6.8-6.6-9.1
				c-2.9-2.3-6.5-3.4-10.9-3.4c-2.1,0-4,0.2-5.8,0.7c-1.8,0.4-3.4,1.1-4.9,1.8c-1.5,0.8-2.9,1.7-4.3,2.7c-1.3,1.1-2.1-2.4-3.8-4.1
				H552c-3,0-2.6,0-5.3,0h-13.5V587l-22.1,0c0-0.6,0-0.7,0-2c0,0,0,0,0,0c0,0,0-0.1,0-0.4c0-0.1,0-0.1,0-0.2v-24.6V545v-24h-11.7
				h-10.4l0,64.7c0,3.2,0.5,6.2,1.4,8.8c0.9,2.6,2.3,4.9,4.1,6.7c1.8,1.9,4,3.3,6.7,4.3c2.6,1,5.7,1.5,9.2,1.5c3.8,0,5,0,9.1,0
				c3.7,0,10.7,0,14.7,0v-0.1H555v-43.7c1.5-1.5,3.2-2.7,5-3.6c1.8-0.9,3.6-1.3,5.6-1.3c3.2,0,5.6,0.8,7.2,2.5
				c1.6,1.7,2.5,4.6,2.5,8.8v37.3H597v-37.3c0-3.7,1-6.5,2.9-8.4c1.9-1.9,4.4-2.9,7.3-2.9c6.5,0,9.7,3.8,9.7,11.3v37.3h21.8v-37.3
				C638.8,565.4,638.2,561.5,637.1,558.1z"/>
			<path class="st1" d="M466.8,543.2v63.6h-13.5c-2.7,0-2.4,0-5.3,0h-1.2c-1.7-1.7-2.5-5.2-3.8-4.1c-1.3,1.1-2.7,2-4.3,2.7
				c-1.5,0.8-3.2,1.4-4.9,1.8c-1.8,0.4-3.7,0.7-5.8,0.7c-4.4,0-8.1-1.1-10.9-3.4c-2.9-2.3-5.1-5.3-6.6-9.1c-1.2,2.3-2.7,4.2-4.5,5.8
				c-1.8,1.6-3.7,2.9-5.7,3.9c-2,1-4.2,1.7-6.5,2.2c-2.3,0.5-4.5,0.7-6.8,0.7c-4.2,0-7.9-0.6-11.1-1.9c-3.2-1.2-5.9-3-8.1-5.4
				c-2.2-2.4-3.8-5.3-5-8.7c-1.1-3.4-1.7-7.3-1.7-11.7v-37.1H383v37.1c0,7.5,3.2,11.3,9.7,11.3c3,0,5.4-1,7.3-2.9
				c1.9-1.9,2.9-4.7,2.9-8.4v-37.1h21.8v37.1c0,4.2,0.8,7.1,2.5,8.8c1.6,1.7,4.1,2.5,7.2,2.5c2,0,3.8-0.4,5.6-1.3
				c1.8-0.9,3.4-2.1,5-3.6v-43.5H466.8z"/>
			<rect x="466.8" y="543.2" class="st2" width="22.1" height="22.1"/>
			<rect x="488.9" y="543.2" class="st3" width="22.1" height="22.1"/>
			<rect x="511.1" y="543.2" class="st4" width="22.1" height="22.1"/>
		</g>
	</g>
</g>
<g>
	<rect x="640.3" y="306" class="st5" width="18.6" height="18.6"/>
	<rect x="677.5" y="306" class="st5" width="18.6" height="18.6"/>
	<rect x="658.9" y="306" class="st5" width="18.6" height="18.6"/>
	<rect x="658.9" y="287.5" class="st5" width="18.6" height="18.6"/>
	<rect x="677.5" y="268.8" class="st5" width="18.6" height="18.6"/>
</g>
<g>
	<rect x="304.9" y="306" class="st5" width="18.6" height="18.6"/>
	<rect x="342.1" y="306" class="st5" width="18.6" height="18.6"/>
	<rect x="323.5" y="306" class="st5" width="18.6" height="18.6"/>
	<rect x="323.5" y="287.4" class="st5" width="18.6" height="18.6"/>
	<rect x="342.2" y="268.8" class="st5" width="18.6" height="18.6"/>
</g>
</svg>
